<mxfile host="65bd71144e">
    <diagram id="t8QoFsj8MZgXzhcuyan1" name="Page-1">
        <mxGraphModel dx="1157" dy="1337" grid="1" gridSize="10" guides="1" tooltips="1" connect="1" arrows="1" fold="1" page="1" pageScale="1" pageWidth="2339" pageHeight="3300" math="0" shadow="0">
            <root>
                <mxCell id="0"/>
                <mxCell id="1" parent="0"/>
                <mxCell id="2" value="10" style="rounded=1;html=1;fontFamily=Alegreya;fontSource=https%3A%2F%2Ffonts.googleapis.com%2Fcss%3Ffamily%3DAlegreya;whiteSpace=wrap;" parent="1" vertex="1">
                    <mxGeometry x="600" y="130" width="40" height="30" as="geometry"/>
                </mxCell>
                <mxCell id="3" value="3" style="rounded=1;html=1;fontFamily=Alegreya;fontSource=https%3A%2F%2Ffonts.googleapis.com%2Fcss%3Ffamily%3DAlegreya;whiteSpace=wrap;" parent="1" vertex="1">
                    <mxGeometry x="440" y="210" width="40" height="30" as="geometry"/>
                </mxCell>
                <mxCell id="4" value="18" style="rounded=1;html=1;fontFamily=Alegreya;fontSource=https%3A%2F%2Ffonts.googleapis.com%2Fcss%3Ffamily%3DAlegreya;whiteSpace=wrap;" parent="1" vertex="1">
                    <mxGeometry x="760" y="210" width="40" height="30" as="geometry"/>
                </mxCell>
                <mxCell id="5" value="1" style="rounded=1;html=1;fontFamily=Alegreya;fontSource=https%3A%2F%2Ffonts.googleapis.com%2Fcss%3Ffamily%3DAlegreya;whiteSpace=wrap;" parent="1" vertex="1">
                    <mxGeometry x="360" y="290" width="40" height="30" as="geometry"/>
                </mxCell>
                <mxCell id="11" value="15" style="rounded=1;html=1;fontFamily=Alegreya;fontSource=https%3A%2F%2Ffonts.googleapis.com%2Fcss%3Ffamily%3DAlegreya;whiteSpace=wrap;" parent="1" vertex="1">
                    <mxGeometry x="680" y="290" width="40" height="30" as="geometry"/>
                </mxCell>
                <mxCell id="12" value="19" style="rounded=1;html=1;fontFamily=Alegreya;fontSource=https%3A%2F%2Ffonts.googleapis.com%2Fcss%3Ffamily%3DAlegreya;whiteSpace=wrap;" parent="1" vertex="1">
                    <mxGeometry x="840" y="290" width="40" height="30" as="geometry"/>
                </mxCell>
                <mxCell id="14" value="16" style="rounded=1;html=1;fontFamily=Alegreya;fontSource=https%3A%2F%2Ffonts.googleapis.com%2Fcss%3Ffamily%3DAlegreya;whiteSpace=wrap;" parent="1" vertex="1">
                    <mxGeometry x="720" y="370" width="40" height="30" as="geometry"/>
                </mxCell>
                <mxCell id="17" value="" style="endArrow=blockThin;html=1;fontFamily=Alegreya;fontSource=https%3A%2F%2Ffonts.googleapis.com%2Fcss%3Ffamily%3DAlegreya;endFill=1;" parent="1" source="2" target="3" edge="1">
                    <mxGeometry width="50" height="50" relative="1" as="geometry">
                        <mxPoint x="420" y="240" as="sourcePoint"/>
                        <mxPoint x="470" y="190" as="targetPoint"/>
                    </mxGeometry>
                </mxCell>
                <mxCell id="18" value="" style="endArrow=blockThin;html=1;fontFamily=Alegreya;fontSource=https%3A%2F%2Ffonts.googleapis.com%2Fcss%3Ffamily%3DAlegreya;endFill=1;" parent="1" source="2" target="4" edge="1">
                    <mxGeometry width="50" height="50" relative="1" as="geometry">
                        <mxPoint x="730" y="200" as="sourcePoint"/>
                        <mxPoint x="640" y="255.38461538461547" as="targetPoint"/>
                    </mxGeometry>
                </mxCell>
                <mxCell id="19" value="" style="endArrow=blockThin;html=1;fontFamily=Alegreya;fontSource=https%3A%2F%2Ffonts.googleapis.com%2Fcss%3Ffamily%3DAlegreya;endFill=1;" parent="1" source="4" target="12" edge="1">
                    <mxGeometry width="50" height="50" relative="1" as="geometry">
                        <mxPoint x="860" y="290" as="sourcePoint"/>
                        <mxPoint x="770" y="345.3846153846155" as="targetPoint"/>
                    </mxGeometry>
                </mxCell>
                <mxCell id="20" value="" style="endArrow=blockThin;html=1;fontFamily=Alegreya;fontSource=https%3A%2F%2Ffonts.googleapis.com%2Fcss%3Ffamily%3DAlegreya;endFill=1;" parent="1" source="4" target="11" edge="1">
                    <mxGeometry width="50" height="50" relative="1" as="geometry">
                        <mxPoint x="690" y="280" as="sourcePoint"/>
                        <mxPoint x="600" y="335.3846153846155" as="targetPoint"/>
                    </mxGeometry>
                </mxCell>
                <mxCell id="21" value="" style="endArrow=blockThin;html=1;fontFamily=Alegreya;fontSource=https%3A%2F%2Ffonts.googleapis.com%2Fcss%3Ffamily%3DAlegreya;endFill=1;" parent="1" source="3" target="5" edge="1">
                    <mxGeometry width="50" height="50" relative="1" as="geometry">
                        <mxPoint x="530" y="280" as="sourcePoint"/>
                        <mxPoint x="440" y="335.3846153846155" as="targetPoint"/>
                    </mxGeometry>
                </mxCell>
                <mxCell id="28" value="" style="endArrow=blockThin;html=1;fontFamily=Alegreya;fontSource=https%3A%2F%2Ffonts.googleapis.com%2Fcss%3Ffamily%3DAlegreya;endFill=1;" parent="1" source="11" target="14" edge="1">
                    <mxGeometry width="50" height="50" relative="1" as="geometry">
                        <mxPoint x="770" y="360" as="sourcePoint"/>
                        <mxPoint x="680" y="415.3846153846155" as="targetPoint"/>
                    </mxGeometry>
                </mxCell>
                <mxCell id="31" value="17" style="rounded=1;html=1;fontFamily=Alegreya;fontSource=https%3A%2F%2Ffonts.googleapis.com%2Fcss%3Ffamily%3DAlegreya;whiteSpace=wrap;" vertex="1" parent="1">
                    <mxGeometry x="750" y="440" width="40" height="30" as="geometry"/>
                </mxCell>
                <mxCell id="32" value="" style="endArrow=blockThin;html=1;fontFamily=Alegreya;fontSource=https%3A%2F%2Ffonts.googleapis.com%2Fcss%3Ffamily%3DAlegreya;endFill=1;" edge="1" parent="1" source="14" target="31">
                    <mxGeometry width="50" height="50" relative="1" as="geometry">
                        <mxPoint x="750" y="430" as="sourcePoint"/>
                        <mxPoint x="775" y="480" as="targetPoint"/>
                    </mxGeometry>
                </mxCell>
            </root>
        </mxGraphModel>
    </diagram>
</mxfile>
